<?xml version="1.0" standalone="no"?>
<!DOCTYPE svg PUBLIC "-//W3C//DTD SVG 20010904//EN"
 "http://www.w3.org/TR/2001/REC-SVG-20010904/DTD/svg10.dtd">
<svg version="1.0" xmlns="http://www.w3.org/2000/svg"
 width="880.000000pt" height="523.000000pt" viewBox="0 0 880.000000 523.000000"
 preserveAspectRatio="xMidYMid meet">
<metadata>
Created by potrace 1.15, written by Peter Selinger 2001-2017
</metadata>
<g transform="translate(0.000000,523.000000) scale(0.100000,-0.100000)"
fill="#000000" stroke="none">
<path d="M4154 4807 c-55 -10 -609 -287 -657 -327 -20 -17 -62 -74 -93 -126
-30 -51 -60 -96 -65 -100 -6 -4 -81 -6 -166 -5 l-155 1 -261 -131 c-144 -72
-304 -154 -356 -183 -102 -56 -109 -63 -220 -248 -33 -55 -59 -88 -69 -88 -9
0 -85 9 -169 20 l-152 20 -401 -200 c-260 -130 -415 -214 -441 -238 -23 -20
-80 -95 -127 -167 -96 -147 -220 -296 -270 -325 -19 -12 -51 -20 -77 -20 l-43
0 -6 -82 c-12 -183 -15 -452 -7 -611 9 -159 11 -173 39 -230 38 -77 83 -124
131 -137 20 -6 142 -37 271 -69 129 -33 395 -103 590 -156 195 -53 551 -150
790 -215 239 -65 505 -137 590 -160 242 -64 526 -141 1020 -275 754 -205 1134
-305 1155 -305 28 0 57 21 145 104 41 39 156 138 255 220 226 188 561 470
1100 926 667 564 901 753 1450 1175 333 255 399 312 421 362 20 45 17 116 -6
200 -24 86 -46 219 -55 324 l-6 77 -62 12 c-68 13 -138 45 -186 85 -17 15 -70
80 -117 146 -62 86 -97 126 -129 144 -76 45 -444 125 -823 180 -97 14 -260 40
-362 57 -102 17 -224 31 -271 32 -82 1 -88 0 -146 -36 -34 -21 -64 -38 -68
-38 -5 0 -51 -27 -105 -60 -53 -33 -113 -66 -134 -75 -35 -15 -39 -15 -66 5
-16 11 -78 76 -139 144 -61 68 -123 133 -139 145 -37 26 -260 83 -427 110
-333 52 -462 71 -620 90 -289 34 -319 37 -361 28z"/>
</g>
</svg>
