<?xml version="1.0" standalone="no"?>
<!DOCTYPE svg PUBLIC "-//W3C//DTD SVG 20010904//EN"
 "http://www.w3.org/TR/2001/REC-SVG-20010904/DTD/svg10.dtd">
<svg version="1.0" xmlns="http://www.w3.org/2000/svg"
 width="340.000000pt" height="270.000000pt" viewBox="0 0 340.000000 270.000000"
 preserveAspectRatio="xMidYMid meet">
<metadata>
Created by potrace 1.15, written by Peter Selinger 2001-2017
</metadata>
<g transform="translate(0.000000,270.000000) scale(0.100000,-0.100000)"
fill="#000000" stroke="none">
<path d="M1517 2665 c-25 -19 -48 -44 -52 -55 -6 -18 -14 -19 -137 -17 -120 2
-132 0 -142 -17 -6 -11 -21 -30 -33 -42 -13 -11 -23 -32 -23 -46 0 -21 -5 -24
-37 -25 -82 -3 -110 -14 -143 -55 -37 -45 -48 -101 -31 -150 10 -28 9 -35 -6
-45 -9 -7 -29 -13 -44 -13 -21 0 -36 -12 -65 -50 -35 -46 -42 -50 -79 -50 -84
0 -177 -90 -161 -156 4 -13 2 -24 -2 -24 -18 0 -62 -53 -62 -74 0 -12 -5 -27
-11 -33 -7 -7 40 -209 156 -674 92 -365 191 -761 220 -879 46 -184 58 -218 80
-238 l26 -22 709 0 c483 0 717 3 733 11 12 6 28 18 33 27 6 9 109 409 230 888
184 732 217 875 208 895 -7 13 -16 36 -22 51 -6 14 -20 29 -32 33 -15 5 -19
12 -14 23 3 10 9 28 11 42 3 14 13 44 24 67 25 56 24 83 -3 123 -28 40 -130
83 -202 84 l-49 1 -20 58 c-24 74 -51 90 -128 78 -38 -7 -55 -6 -58 2 -2 7
-17 24 -32 40 -26 25 -32 27 -86 21 -40 -4 -62 -12 -72 -25 -21 -30 -41 -23
-41 14 0 37 -34 117 -49 117 -6 0 -27 24 -47 54 -26 40 -44 57 -66 61 -43 10
-117 -15 -141 -47 l-20 -27 -31 36 c-27 31 -39 36 -86 41 -30 2 -64 11 -75 18
-34 24 -79 17 -128 -21z m123 -15 c19 -14 37 -19 53 -15 39 10 91 -18 110 -58
22 -47 21 -80 -3 -102 -14 -13 -20 -31 -20 -61 0 -38 -4 -45 -35 -64 -26 -16
-43 -20 -67 -15 -41 9 -85 49 -93 85 -4 17 -21 38 -44 53 -32 21 -39 33 -44
69 -7 50 8 79 56 108 40 25 52 25 87 0z m376 -37 c13 -14 27 -36 30 -48 3 -13
17 -28 30 -34 43 -19 69 -106 40 -133 -32 -31 -57 -48 -69 -48 -6 0 -21 -14
-32 -31 -18 -27 -24 -30 -59 -25 -63 8 -105 73 -86 132 7 21 9 59 5 97 -7 68
-2 79 54 104 41 18 60 15 87 -14z m-628 -54 c42 1 82 -12 82 -27 0 -4 -19 -6
-42 -4 l-43 3 30 -15 c52 -24 66 -40 79 -91 l13 -50 7 33 c8 36 29 39 34 5 2
-13 -7 -28 -25 -42 -44 -33 -46 -35 -84 -79 -28 -33 -46 -44 -82 -51 -53 -10
-77 6 -77 51 0 19 -6 27 -24 32 -14 3 -41 21 -60 40 -31 29 -36 39 -36 81 0
36 6 54 26 79 34 39 47 44 109 39 28 -3 69 -4 93 -4z m448 -160 c-1 -58 0 -62
39 -98 37 -34 40 -41 33 -69 -5 -17 -18 -37 -29 -43 -19 -10 -20 -9 -14 11 7
22 6 22 -16 6 -27 -19 -80 -21 -97 -4 -7 7 -12 8 -12 3 1 -28 49 -59 77 -48
16 6 16 5 4 -10 -19 -24 -33 -21 -75 16 -33 28 -38 38 -39 82 -2 41 1 50 16
53 10 2 25 -5 33 -15 13 -17 14 -16 9 7 -5 19 0 32 19 50 20 18 26 33 26 66 0
24 5 44 13 47 6 3 12 6 13 6 1 1 1 -26 0 -60z m-732 35 c9 -3 25 -25 35 -49
14 -31 32 -51 65 -70 26 -15 46 -34 46 -44 0 -9 7 -27 16 -39 14 -21 14 -23
-14 -39 -16 -9 -37 -31 -46 -48 -9 -17 -31 -37 -49 -45 -18 -7 -34 -15 -37
-17 -12 -7 -50 39 -50 61 0 19 -7 25 -34 30 -41 8 -85 66 -93 123 -4 31 1 45
27 81 23 31 39 42 58 42 15 0 34 5 42 10 18 12 15 11 34 4z m1250 -58 c23 -49
20 -52 -13 -17 -16 17 -36 31 -45 31 -27 0 -80 -26 -100 -49 -27 -30 -15 -35
25 -12 60 34 75 35 110 3 26 -23 30 -32 22 -48 -6 -10 -13 -36 -17 -58 -4 -21
-10 -35 -13 -32 -3 3 -14 -5 -24 -17 -14 -19 -27 -23 -68 -22 -36 1 -51 -3
-51 -12 0 -7 -4 -13 -10 -13 -5 0 -10 16 -10 35 0 23 -9 45 -28 67 -23 27 -27
38 -21 61 8 31 3 34 -23 10 -31 -28 -21 6 12 39 27 27 36 30 69 24 34 -5 39
-3 49 19 10 22 18 25 66 25 51 0 54 -2 70 -34z m195 -92 c7 -27 22 -60 32 -73
20 -25 28 -121 10 -121 -5 0 -6 19 -4 43 3 28 0 48 -11 62 -15 19 -15 18 -16
-22 0 -51 -8 -73 -26 -73 -8 0 -33 -17 -57 -38 -54 -50 -75 -57 -98 -36 -28
25 -23 37 6 18 21 -14 31 -15 50 -6 14 7 25 16 25 22 0 6 -5 8 -11 5 -19 -12
-58 5 -73 33 l-15 27 -1 -30 c0 -23 -3 -27 -10 -15 -17 27 -11 68 16 99 20 24
23 34 15 50 -15 27 22 109 52 116 55 11 63 11 82 0 11 -7 26 -34 34 -61z
m-929 35 c42 -17 50 -26 50 -59 0 -57 21 -101 60 -128 41 -28 57 -62 21 -42
-25 13 -85 -11 -127 -51 -29 -28 -31 -29 -46 -12 -9 10 -18 27 -20 38 -2 12
-22 30 -50 45 -49 25 -59 45 -61 118 0 27 8 41 42 74 46 43 59 45 131 17z
m464 -86 c45 -47 53 -75 33 -117 -10 -21 -12 -38 -6 -47 12 -19 11 -59 -1 -59
-5 0 -10 12 -11 28 0 15 -3 22 -6 15 -3 -8 -18 -11 -46 -7 -47 7 -123 -10
-148 -33 -15 -13 -19 -12 -33 9 -9 12 -16 34 -17 48 0 14 -3 19 -6 13 -6 -17
-23 -17 -23 0 0 19 48 66 73 72 14 4 28 21 40 48 13 33 25 46 50 54 53 17 63
15 101 -24z m627 -39 c8 -8 27 -14 41 -14 53 0 102 -68 79 -108 -8 -14 -10
-10 -11 19 0 36 -17 60 -52 72 -23 8 -23 1 2 -30 12 -16 20 -41 20 -66 0 -34
2 -38 15 -27 8 7 15 8 15 2 0 -5 -7 -15 -15 -22 -8 -7 -14 -25 -13 -41 4 -51
-54 -94 -104 -77 -24 9 -27 14 -25 54 1 24 6 44 10 44 5 0 -2 17 -14 37 -24
39 -35 128 -17 139 6 4 5 10 -3 15 -12 8 -11 11 1 19 17 11 48 4 71 -16z
m-1294 -11 c15 -20 8 -32 -9 -15 -21 21 -74 14 -108 -14 -37 -32 -33 -41 9
-20 41 22 67 20 104 -6 18 -13 45 -30 62 -38 38 -19 77 -77 73 -109 -4 -31
-23 -39 -25 -10 -2 25 -29 69 -43 69 -6 0 -6 -10 0 -26 18 -47 14 -56 -22 -48
-18 4 -55 8 -83 10 -27 2 -71 6 -96 9 -35 5 -48 3 -58 -9 -20 -23 -29 -20 -45
17 l-14 32 -1 -42 c-1 -46 -12 -60 -31 -38 -9 11 -9 22 -1 46 6 17 8 35 6 40
-7 10 34 49 51 49 7 0 24 15 38 33 44 54 60 69 91 83 36 17 85 10 102 -13z
m-443 -12 c10 -11 28 -22 42 -25 15 -4 24 -14 24 -25 0 -11 14 -31 30 -44 31
-26 39 -67 20 -97 -6 -10 -2 -26 12 -52 27 -47 19 -58 -55 -74 -28 -6 -59 -14
-68 -18 -11 -5 -20 4 -35 34 -15 31 -29 44 -63 57 -34 13 -48 25 -62 57 -28
61 -24 101 13 147 18 22 40 39 52 39 12 0 28 5 36 10 22 14 35 12 54 -9z
m1325 -77 c27 -34 26 -42 -1 -47 -21 -3 -21 -4 6 -12 16 -4 38 -17 48 -27 18
-18 18 -21 3 -32 -9 -6 -22 -36 -28 -66 l-12 -55 -23 39 c-17 28 -37 44 -82
64 -59 26 -60 27 -60 67 0 45 5 54 40 78 38 26 85 22 109 -9z m-1539 -39 c0
-9 -9 -15 -22 -15 -33 -1 -66 -22 -89 -56 -29 -44 -23 -52 14 -16 20 20 48 35
70 39 34 5 36 4 61 -44 19 -39 32 -52 58 -59 22 -7 42 -24 62 -53 l28 -43 -31
-32 -31 -32 65 -305 c65 -299 66 -304 49 -337 -9 -17 -20 -30 -22 -27 -3 3
-45 148 -92 323 -84 310 -87 317 -111 314 -26 -3 -30 -7 44 52 20 16 35 31 33
33 -2 3 -31 -9 -65 -26 -79 -41 -100 -39 -156 9 -25 22 -55 45 -66 50 -29 16
-23 38 16 61 19 12 35 22 35 24 0 2 -4 14 -9 27 -12 34 3 63 50 98 46 33 109
42 109 15z m1013 -9 c51 -17 81 -64 69 -109 -4 -17 -5 -56 -1 -86 8 -60 4 -75
-14 -51 -13 17 -70 50 -85 50 -6 0 -13 -91 -17 -225 l-7 -225 -34 0 -34 0 0
143 c0 184 -10 307 -24 307 -6 0 -28 -11 -48 -25 -20 -14 -39 -25 -42 -25 -4
0 -6 11 -6 25 0 14 -4 25 -10 25 -10 0 -15 -27 -11 -67 1 -13 -4 -23 -10 -23
-15 0 -6 114 10 134 6 7 29 21 51 32 22 10 40 24 40 31 0 16 66 82 94 93 29
12 35 12 79 -4z m832 -16 c32 -33 36 -72 12 -119 -8 -16 -12 -40 -10 -54 6
-31 -31 -104 -57 -112 -25 -8 -17 -25 12 -25 12 0 18 -5 16 -12 -2 -7 -42
-154 -89 -326 -88 -327 -86 -323 -118 -262 -5 9 18 135 55 310 35 162 64 302
64 310 -1 8 -14 26 -30 40 -17 13 -30 29 -30 35 0 7 -9 20 -20 30 -13 12 -20
31 -20 54 -1 34 -2 35 -15 17 -15 -19 -15 -19 -15 2 0 20 60 71 85 72 5 1 24
16 40 35 39 45 80 47 120 5z m-519 -43 c21 -18 58 -39 81 -45 42 -13 103 -56
103 -73 0 -22 -29 -18 -58 9 -33 31 -69 42 -131 42 -34 -1 -33 -2 24 -21 33
-11 69 -29 80 -40 19 -19 19 -19 -13 -50 -18 -17 -32 -36 -32 -41 0 -10 -47
-357 -55 -405 -5 -30 -7 -31 -35 -21 -24 8 -30 16 -30 40 0 33 18 255 25 307
4 32 3 33 -25 28 -37 -8 -76 22 -85 64 -5 24 -9 28 -16 18 -5 -8 -6 -27 -3
-42 6 -27 4 -28 -15 -18 -23 13 -28 50 -10 68 8 8 6 25 -7 60 -17 49 -17 51 2
84 15 25 33 38 69 51 70 24 86 22 131 -15z m-780 -37 c5 -5 28 -10 49 -11 85
-3 125 -10 125 -24 0 -9 -11 -12 -42 -9 l-43 5 33 -18 c32 -16 32 -18 30 -78
-1 -33 1 -66 5 -72 9 -15 -23 -25 -85 -26 -56 -1 -53 11 -38 -153 21 -231 22
-209 -13 -222 -17 -6 -31 -11 -32 -9 -1 1 -14 90 -29 197 -15 107 -30 209 -33
225 -6 29 -6 30 14 13 11 -10 24 -18 29 -18 5 0 4 4 -1 8 -24 16 -55 66 -55
87 0 12 9 34 21 49 11 14 17 26 12 26 -19 -1 -46 -31 -57 -63 -10 -31 -14 -33
-29 -22 -16 11 -16 15 -2 47 22 53 112 97 141 68z m1412 -85 c19 -1 43 -12 55
-23 l21 -22 -25 -26 c-13 -14 -44 -38 -68 -52 l-44 -26 -19 24 c-11 13 -16 30
-12 39 3 9 9 35 11 59 5 38 8 42 27 36 11 -4 36 -8 54 -9z m-918 -545 c189
-20 342 -79 445 -173 100 -90 132 -183 100 -292 -33 -116 -196 -240 -380 -288
-268 -71 -591 -29 -785 103 -111 75 -159 154 -160 258 0 126 80 228 241 305
107 52 189 75 304 86 115 12 130 12 235 1z"/>
<path d="M1585 1184 c-45 -23 -50 -31 -33 -51 16 -19 41 -82 58 -150 11 -45
24 -52 53 -30 15 10 15 17 5 50 -10 34 -10 40 5 49 37 20 57 52 57 90 0 27 -5
40 -19 48 -29 15 -92 12 -126 -6z"/>
<path d="M1252 1174 c-142 -62 -220 -189 -186 -303 45 -154 301 -284 549 -280
46 1 43 2 -30 13 -280 44 -485 182 -485 326 0 74 57 156 152 219 61 41 61 52
0 25z"/>
<path d="M1422 1140 c-13 -6 -28 -23 -35 -40 -12 -27 -14 -28 -29 -14 -20 20
-68 13 -116 -16 -43 -26 -48 -44 -22 -70 12 -12 38 -55 57 -96 19 -41 39 -74
43 -74 4 0 15 8 24 19 16 17 16 21 0 55 -16 33 -17 37 -1 49 9 6 23 25 31 40
l14 29 17 -36 c44 -92 150 -105 171 -20 20 80 -46 186 -114 183 -9 0 -27 -4
-40 -9z"/>
<path d="M1903 959 c-39 -11 -47 -23 -34 -47 6 -11 15 -60 22 -111 8 -60 16
-91 24 -91 25 0 35 26 29 74 -9 61 12 62 27 1 12 -49 31 -70 54 -62 8 4 17 2
20 -3 3 -5 15 -6 28 -1 19 7 23 17 27 77 l5 69 13 -45 c26 -95 26 -95 58 -98
l31 -3 6 93 c4 51 10 106 13 121 6 26 4 28 -17 25 -21 -3 -25 -10 -29 -58 -6
-53 -6 -54 -18 -27 -7 16 -12 34 -12 40 0 25 -30 56 -51 52 -50 -10 -61 -17
-53 -33 5 -10 10 -48 12 -86 5 -89 -10 -106 -38 -43 -19 43 -20 49 -6 69 20
28 20 62 2 77 -20 17 -75 22 -113 10z"/>
<path d="M1753 940 c-34 -14 -46 -47 -40 -112 7 -78 43 -128 91 -128 45 0 66
33 66 100 0 102 -53 165 -117 140z"/>
<path d="M1629 913 c-15 -2 -35 -13 -45 -24 -34 -38 -16 -144 34 -201 23 -27
67 -23 91 8 25 32 25 35 6 60 -14 18 -16 18 -29 2 -28 -37 -53 -15 -71 62 -3
14 0 33 8 44 13 18 14 18 21 -7 6 -26 38 -38 50 -19 7 12 -18 82 -29 81 -5 -1
-22 -4 -36 -6z"/>
</g>
</svg>
