<?xml version="1.0" standalone="no"?>
<!DOCTYPE svg PUBLIC "-//W3C//DTD SVG 20010904//EN"
 "http://www.w3.org/TR/2001/REC-SVG-20010904/DTD/svg10.dtd">
<svg version="1.0" xmlns="http://www.w3.org/2000/svg"
 width="310.000000pt" height="237.000000pt" viewBox="0 0 310.000000 237.000000"
 preserveAspectRatio="xMidYMid meet">
<metadata>
Created by potrace 1.15, written by Peter Selinger 2001-2017
</metadata>
<g transform="translate(0.000000,237.000000) scale(0.100000,-0.100000)"
fill="#000000" stroke="none">
<path d="M1360 1866 c-30 -12 -113 -42 -185 -67 -71 -24 -139 -52 -149 -61
-11 -10 -24 -18 -28 -18 -17 0 -30 -53 -19 -78 20 -44 -17 -37 -150 28 l-129
63 -30 -30 -30 -29 26 -23 c14 -12 68 -42 120 -66 52 -24 94 -48 93 -52 0 -4
-22 -26 -48 -48 -26 -22 -116 -98 -200 -170 -84 -71 -157 -131 -162 -133 -20
-8 -7 14 20 33 63 45 104 87 92 95 -9 5 -8 9 4 13 9 4 13 3 10 -3 -13 -21 12
-8 50 26 38 34 39 36 21 50 -11 8 -15 14 -9 14 10 0 9 43 -3 128 -4 27 -2 48
5 55 15 15 14 30 -3 24 -9 -4 -12 0 -9 12 7 27 -25 35 -56 15 -21 -14 -336
-256 -423 -324 -16 -13 -19 -26 -16 -75 l3 -59 52 -31 c30 -17 54 -39 57 -52
7 -27 252 -272 284 -284 13 -5 42 -9 66 -9 27 0 49 -7 62 -18 46 -42 84 -62
119 -62 31 0 45 -8 87 -50 28 -28 52 -50 55 -50 3 0 64 58 137 129 72 71 165
156 206 189 l75 61 35 -38 c61 -66 93 -117 114 -184 4 -11 11 -15 18 -11 7 4
10 4 6 -1 -10 -11 19 -60 70 -120 23 -27 42 -55 42 -61 0 -7 3 -14 8 -16 20
-9 72 -90 72 -113 0 -16 4 -24 11 -20 6 4 13 -2 16 -14 6 -24 16 -27 32 -8 7
9 7 17 1 23 -7 7 7 9 40 7 65 -5 110 16 180 82 43 41 65 54 97 59 33 5 53 17
92 57 28 29 51 57 51 64 0 7 -25 49 -55 93 -30 45 -55 85 -55 91 0 9 61 51 75
51 4 0 2 -7 -5 -15 -10 -12 -10 -15 1 -15 9 0 10 -3 2 -11 -8 -8 -7 -18 3 -37
8 -15 14 -33 14 -39 0 -15 19 -17 53 -4 18 7 26 20 32 53 13 74 15 82 22 87 3
3 3 -14 -1 -38 -5 -35 -4 -42 8 -38 8 3 17 -1 21 -11 9 -24 35 31 35 74 0 19
4 34 9 34 12 0 21 -54 11 -60 -4 -3 -11 -22 -15 -43 -4 -20 -11 -40 -16 -43
-17 -10 -9 -43 12 -49 11 -4 28 -20 38 -36 l18 -30 -51 -49 c-28 -28 -74 -72
-103 -98 -33 -31 -51 -56 -52 -72 -1 -14 -3 -41 -4 -60 l-2 -35 50 3 c28 1 88
10 135 18 47 9 92 17 100 18 9 1 21 5 27 9 6 4 14 3 18 -3 3 -5 17 -10 31 -10
34 0 87 -28 81 -43 -3 -7 -8 -20 -12 -29 -17 -43 43 4 105 82 l28 36 -24 2
c-13 1 -23 -2 -23 -6 3 -18 -2 -32 -12 -32 -6 0 -8 7 -5 16 5 13 0 15 -27 10
-27 -5 -28 -4 -9 4 12 5 22 12 22 15 0 4 -4 3 -10 0 -16 -10 -12 5 8 28 21 26
72 35 72 13 0 -17 30 -36 56 -36 15 0 16 8 11 68 -7 83 -9 95 -22 104 -5 4 -1
8 10 8 14 0 16 3 7 9 -10 6 -10 13 -2 32 8 18 8 32 0 54 -12 31 -19 145 -9
145 3 0 5 16 6 35 1 28 -2 34 -12 25 -9 -8 -14 -6 -19 5 -3 8 -9 14 -13 13 -4
-1 -21 2 -36 7 -15 4 -31 5 -34 1 -11 -10 -24 -107 -24 -166 0 -30 -2 -49 -5
-42 -3 6 -21 12 -40 12 l-35 0 16 30 c23 44 19 44 -31 5 -46 -34 -74 -44 -74
-26 0 5 -3 17 -6 26 -5 13 -2 16 17 13 31 -4 36 23 11 60 -20 27 -20 31 -6
106 21 108 17 126 -31 153 -36 21 -98 34 -68 15 9 -5 9 -18 2 -47 -5 -22 -12
-53 -15 -70 -3 -16 -12 -34 -19 -40 -7 -5 -16 -19 -19 -30 -3 -11 -3 2 0 28 3
26 11 70 18 97 13 50 6 80 -18 80 -8 0 -17 -7 -20 -16 -4 -9 -9 -14 -13 -11
-11 12 19 37 46 37 l26 1 -29 22 c-15 12 -42 36 -60 53 -31 30 -96 68 -103 60
-7 -7 24 -61 61 -105 50 -60 46 -83 -7 -41 -37 29 -79 35 -116 16 -17 -9 -36
-14 -41 -11 -5 3 -31 -3 -56 -15 -40 -17 -50 -18 -63 -7 -17 14 -51 12 -51 -4
0 -5 -11 -9 -24 -9 -19 0 -39 23 -104 122 l-81 121 25 33 c21 26 23 37 15 53
-6 11 -11 29 -11 41 0 12 -4 18 -10 15 -5 -3 -10 -2 -10 4 0 5 4 12 9 15 12 8
11 87 -2 111 -12 22 -48 54 -62 55 -5 0 -32 -23 -60 -50 l-51 -51 -62 90 c-75
108 -101 131 -37 33 68 -107 54 -99 -22 11 -36 53 -69 97 -72 97 -3 -1 -31
-11 -61 -24z m-361 -349 c-25 -22 -25 -23 -6 -38 22 -17 48 -81 51 -127 3 -41
25 -63 66 -67 18 -1 35 -7 39 -12 3 -6 12 -12 20 -14 14 -5 -283 -299 -302
-299 -10 0 -34 13 -180 98 -75 44 -104 67 -75 60 13 -3 93 71 85 79 -7 7 -57
-20 -57 -30 0 -6 -3 -7 -7 -4 -7 8 66 81 224 225 56 51 104 101 107 110 3 10
16 22 28 28 34 17 35 16 7 -9z"/>
</g>
</svg>
